<?xml version="1.0" standalone="no"?><!DOCTYPE svg PUBLIC "-//W3C//DTD SVG 1.1//EN" "http://www.w3.org/Graphics/SVG/1.1/DTD/svg11.dtd"><svg t="1532581011198" class="icon" style="" viewBox="0 0 1024 1024" version="1.1" xmlns="http://www.w3.org/2000/svg" p-id="3232" xmlns:xlink="http://www.w3.org/1999/xlink" width="32" height="32"><defs><style type="text/css"></style></defs><path d="M916.262 941.33366666L107.72 941.33366666c-9.72 0-15.1 2.195-17.595 12.475-2.297 9.465 7.875 17.615 17.595 17.615l808.542 0c9.76 0 15.94-2.25 17.615-12.495C935.447 949.33366666 926.022 941.33366666 916.262 941.33366666zM714.117 890.56366666l197.026 0c9.76 0 17.615-7.875 17.6-17.615L928.743 600.21866666c0-9.74-7.84-17.61-17.615-17.61L714.112 582.60866666c-9.75 0-12.47 7.87-12.47 17.61l0 272.751c0 9.72 2.715 17.595 12.47 17.595L714.117 890.56466666zM731.732 612.69366666l166.92 0 0 247.786-166.92 0L731.732 612.69366666zM416.046 890.56366666l191.891 0c9.775 0 17.615-7.875 17.615-17.615L625.552 150.38666666c0-9.72-7.84-12.475-17.615-12.475L416.046 137.91166666c-9.72 0-17.595 2.755-17.595 12.475l0 722.562C398.451 882.68866666 406.326 890.56366666 416.046 890.56366666zM428.541 168.00166666l166.92 0 0 692.477-166.92 0L428.541 168.00166666zM107.72 890.56366666l197.03 0c9.72 0 17.613-7.875 17.578-17.615L322.328 438.49766666c0-9.702-7.893-17.595-17.598-17.595L107.72 420.90266666c-9.72 0-12.475 7.875-12.475 17.595l0 434.451C95.245 882.68866666 98 890.56366666 107.72 890.56366666L107.72 890.56366666zM125.335 450.99266666l166.92 0 0 409.466-166.92 0L125.335 450.99266666z" fill="#ffffff" p-id="3233"></path></svg>