<?xml version="1.0" standalone="no"?><!DOCTYPE svg PUBLIC "-//W3C//DTD SVG 1.1//EN" "http://www.w3.org/Graphics/SVG/1.1/DTD/svg11.dtd"><svg t="1532581032956" class="icon" style="" viewBox="0 0 1024 1024" version="1.1" xmlns="http://www.w3.org/2000/svg" p-id="3650" xmlns:xlink="http://www.w3.org/1999/xlink" width="32" height="32"><defs><style type="text/css"></style></defs><path d="M723.884246 241.33858h-423.771562c-93.604888 0-169.500439 76.532047-169.500439 170.941254v199.439308c0 94.409207 75.895551 170.941254 169.500439 170.941254h423.771562c93.616144 0 169.501462-76.532047 169.501462-170.941254V412.279834c0-94.409207-75.884294-170.941254-169.501462-170.941254z m120.290667 335.802023c0 86.312808-71.39198 156.307975-159.455665 156.307975H339.268472c-88.054475 0-159.444409-69.995167-159.444409-156.307975V446.857351c0-86.311785 71.389934-156.306952 159.444409-156.306952h345.450776c88.064708 0 159.455665 69.995167 159.455665 156.306952v130.283252z m-418.043094 57.596789l221.437321-122.859165-221.437321-122.858143v245.717308z" fill="#ffffff" p-id="3651"></path></svg>