<?xml version="1.0" standalone="no"?><!DOCTYPE svg PUBLIC "-//W3C//DTD SVG 1.1//EN" "http://www.w3.org/Graphics/SVG/1.1/DTD/svg11.dtd"><svg t="1532581040665" class="icon" style="" viewBox="0 0 1024 1024" version="1.1" xmlns="http://www.w3.org/2000/svg" p-id="3859" xmlns:xlink="http://www.w3.org/1999/xlink" width="32" height="32"><defs><style type="text/css"></style></defs><path d="M911.781 81.722h-117.663v-30.371c0-14.61-11.844-26.451-26.451-26.451s-26.451 11.844-26.451 26.451v30.371h-457.043v-30.371c0-14.61-11.844-26.451-26.451-26.451s-26.451 11.844-26.451 26.451v30.371h-117.663c-42.992 0-77.971 34.97-77.971 77.957v721.154c0 42.987 34.977 77.957 77.971 77.957h798.186c42.992 0 77.971-34.97 77.971-77.957v-721.152c0-42.987-34.977-77.958-77.971-77.958zM88.531 159.68c0-13.812 11.244-25.048 25.065-25.048h117.663v36.464c0 14.61 11.844 26.451 26.451 26.451s26.451-11.844 26.451-26.451v-36.464h457.043v36.464c0 14.61 11.844 26.451 26.451 26.451s26.451-11.844 26.451-26.451v-36.464h117.663c13.821 0 25.063 11.237 25.063 25.048v135.806h-848.311v-135.806zM911.781 905.885h-798.186c-13.821 0-25.065-11.237-25.065-25.048v-532.442h848.311v532.44c0 13.813-11.244 25.049-25.063 25.049z" fill="#ffffff" p-id="3860"></path><path d="M614.508 447.062h-208.158c-30.498 1.395-46.455 15.956-47.85 43.703 0 29.139 15.984 43.718 47.85 43.718h147.786c-69.36 81.882-109.592 163.086-120.694 243.527 2.737 27.786 18.026 42.995 45.782 45.782 36.076 2.8 57.584-21.484 64.532-72.83 9.709-67.979 34.68-127.67 74.911-178.993 34.701-34.68 50.664-60.375 47.899-77.044-0.001-31.903-17.353-47.861-52.058-47.861z" fill="#ffffff" p-id="3861"></path></svg>