<?xml version="1.0" standalone="no"?><!DOCTYPE svg PUBLIC "-//W3C//DTD SVG 1.1//EN" "http://www.w3.org/Graphics/SVG/1.1/DTD/svg11.dtd"><svg t="1532580981266" class="icon" style="" viewBox="0 0 1024 1024" version="1.1" xmlns="http://www.w3.org/2000/svg" p-id="2693" xmlns:xlink="http://www.w3.org/1999/xlink" width="32" height="32"><defs><style type="text/css"></style></defs><path d="M843.861333 343.168H360.490667l238.762666-238.762667a25.642667 25.642667 0 0 0-36.224-36.224L288.042667 343.168H180.138667A120.576 120.576 0 0 0 59.733333 463.616v379.264a120.533333 120.533333 0 0 0 120.405334 120.448h663.722666a120.533333 120.533333 0 0 0 120.405334-120.448v-379.264a120.576 120.576 0 0 0-120.405334-120.448zM913.066667 842.837333c0 38.186667-31.061333 69.248-69.205334 69.248H180.138667A69.290667 69.290667 0 0 1 110.933333 842.837333v-379.264c0-38.186667 31.061333-69.205333 69.205334-69.205333h663.722666c38.186667 0 69.205333 31.061333 69.205334 69.205333v379.264zM345.088 511.104c-78.378667 0-142.165333 63.786667-142.165333 142.165333s63.786667 142.165333 142.165333 142.165334 142.165333-63.786667 142.165333-142.165334-63.786667-142.165333-142.165333-142.165333z m0 233.045333c-50.133333 0-90.922667-40.789333-90.922667-90.922666s40.789333-90.922667 90.922667-90.922667 90.922667 40.789333 90.922667 90.922667-40.789333 90.922667-90.922667 90.922666z m475.989333-167.466666a25.6 25.6 0 0 1-25.6 25.6H605.866667a25.6 25.6 0 1 1 0-51.2h189.610666a25.6 25.6 0 0 1 25.6 25.6z m0 153.088a25.6 25.6 0 0 1-25.6 25.6H605.866667a25.6 25.6 0 1 1 0-51.2h189.610666a25.6 25.6 0 0 1 25.6 25.6z" fill="#ffffff" p-id="2694"></path></svg>